<svg id="Layer_1" data-name="Layer 1" xmlns="http://www.w3.org/2000/svg" viewBox="0 0 43.96 32.44"><defs><style>.cls-1{fill:#fff;}</style></defs><path class="cls-1" d="M47,9.4l-8.47,30s.78-.26.75-.25c-15.83,4.58-26.47.28-27.13,0,0,0-1.09-3.95-1.1-4L3,9.1A.08.08,0,0,1,3.17,9L13,26a.08.08,0,0,0,.15,0L14.42,9a.08.08,0,0,1,.15,0l3.78,16.85a.08.08,0,0,0,.15,0l3.77-17a.08.08,0,0,1,.15,0l3.07,17a.08.08,0,0,0,.15,0l3.9-16.94a.08.08,0,0,1,.15,0l2.67,16.4a.08.08,0,0,0,.15,0L36.33,9.31a.08.08,0,0,1,.15,0l2.73,17.06a.08.08,0,0,0,.15,0l7.47-17A.07.07,0,0,1,47,9.4Z" transform="translate(-3.02 -8.78)"/></svg>